HIERARCHY
ROOT Hips
{
	OFFSET 0.000000 0.000000 0.000000
	CHANNELS 6 Xposition Yposition Zposition Xrotation Yrotation Zrotation
	JOINT LeftUpLeg_virtual
	{
		OFFSET 0.000000 0.000000 0.000000
		CHANNELS 3 Xrotation Yrotation Zrotation
		JOINT LeftUpLeg
		{
			OFFSET 13.026900 -6.336304 -1.092800
			CHANNELS 3 Xrotation Yrotation Zrotation
			JOINT LeftLeg
			{
				OFFSET 0.524474 -46.096886 9.782700
				CHANNELS 3 Xrotation Yrotation Zrotation
				JOINT LeftFoot
				{
					OFFSET -0.524474 -53.427422 -12.948200
					CHANNELS 3 Xrotation Yrotation Zrotation
					JOINT LeftToeBase
					{
						OFFSET 0.192200 -14.009700 16.364100
						CHANNELS 3 Xrotation Yrotation Zrotation
						JOINT LeftToe_End
						{
							OFFSET -1.784700 -0.561700 9.474800
							CHANNELS 3 Xrotation Yrotation Zrotation
							End Site
							{
								OFFSET 0 0 0
							}
						}
					}
				}
			}
		}
	}
	JOINT RightUpLeg_virtual
	{
		OFFSET 0.000000 0.000000 0.000000
		CHANNELS 3 Xrotation Yrotation Zrotation
		JOINT RightUpLeg
		{
			OFFSET -12.883000 -6.336304 -1.092800
			CHANNELS 3 Xrotation Yrotation Zrotation
			JOINT RightLeg
			{
				OFFSET -0.524587 -46.096825 9.782800
				CHANNELS 3 Xrotation Yrotation Zrotation
				JOINT RightFoot
				{
					OFFSET 0.524587 -53.427383 -12.948300
					CHANNELS 3 Xrotation Yrotation Zrotation
					JOINT RightToeBase
					{
						OFFSET -0.192200 -14.009700 16.364100
						CHANNELS 3 Xrotation Yrotation Zrotation
						JOINT RightToe_End
						{
							OFFSET 1.784700 -0.561700 9.474800
							CHANNELS 3 Xrotation Yrotation Zrotation
							End Site
							{
								OFFSET 0 0 0
							}
						}
					}
				}
			}
		}
	}
	JOINT Spine_virtual
	{
		OFFSET 0.000000 0.000000 0.000000
		CHANNELS 3 Xrotation Yrotation Zrotation
		JOINT Spine
		{
			OFFSET 0.072000 7.257294 -0.789700
			CHANNELS 3 Xrotation Yrotation Zrotation
			JOINT Spine1
			{
				OFFSET 0.000000 12.508769 -0.658067
				CHANNELS 3 Xrotation Yrotation Zrotation
				JOINT Spine1_split
				{
					OFFSET 0.000000 12.508769 -0.658067
					CHANNELS 3 Xrotation Yrotation Zrotation
					JOINT Spine2
					{
						OFFSET 0.000000 12.508769 -0.658067
						CHANNELS 3 Xrotation Yrotation Zrotation
						JOINT Neck_virtual
						{
							OFFSET 0.000000 0.000000 0.000000
							CHANNELS 3 Xrotation Yrotation Zrotation
							JOINT Neck
							{
								OFFSET 0.000000 14.033295 7.520400
								CHANNELS 3 Xrotation Yrotation Zrotation
								JOINT Head
								{
									OFFSET 0.000000 8.198502 5.703100
									CHANNELS 3 Xrotation Yrotation Zrotation
									JOINT HeadTop_End
									{
										OFFSET 0.000000 17.760803 13.332701
										CHANNELS 3 Xrotation Yrotation Zrotation
										End Site
										{
											OFFSET 0 0 0
										}
									}
								}
							}
						}
						JOINT LeftShoulder_virtual
						{
							OFFSET 0.000000 0.000000 0.000000
							CHANNELS 3 Xrotation Yrotation Zrotation
							JOINT LeftShoulder
							{
								OFFSET 6.292450 5.785301 -0.669000
								CHANNELS 3 Xrotation Yrotation Zrotation
								JOINT LeftShoulder_split
								{
									OFFSET 6.292450 5.785301 -0.669000
									CHANNELS 3 Xrotation Yrotation Zrotation
									JOINT LeftArm
									{
										OFFSET 13.907140 -6.093903 1.965100
										CHANNELS 3 Xrotation Yrotation Zrotation
										JOINT LeftForeArm
										{
											OFFSET 34.140198 0.000000 0.000000
											CHANNELS 3 Xrotation Yrotation Zrotation
											JOINT LeftHand
											{
												OFFSET 40.960209 0.000000 0.000000
												CHANNELS 3 Xrotation Yrotation Zrotation
												End Site
												{
													OFFSET 0 0 0
												}
											}
										}
									}
								}
							}
						}
						JOINT RightShoulder_virtual
						{
							OFFSET 0.000000 0.000000 0.000000
							CHANNELS 3 Xrotation Yrotation Zrotation
							JOINT RightShoulder
							{
								OFFSET -6.292450 5.785301 -0.669000
								CHANNELS 3 Xrotation Yrotation Zrotation
								JOINT RightShoulder_split
								{
									OFFSET -6.292450 5.785301 -0.669000
									CHANNELS 3 Xrotation Yrotation Zrotation
									JOINT RightArm
									{
										OFFSET -13.907140 -6.093903 1.965100
										CHANNELS 3 Xrotation Yrotation Zrotation
										JOINT RightForeArm
										{
											OFFSET -34.140198 0.000000 0.000000
											CHANNELS 3 Xrotation Yrotation Zrotation
											JOINT RightHand
											{
												OFFSET -40.960209 0.000000 0.000000
												CHANNELS 3 Xrotation Yrotation Zrotation
												End Site
												{
													OFFSET 0 0 0
												}
											}
										}
									}
								}
							}
						}
					}
				}
			}
		}
	}
}
MOTION
Frames: 9
Frame Time: 0.03333333
3.813452 96.961296 21.043015 0.000000 0.000000 0.000000 -0.949782 -36.038346 -2.329944 -43.433928 -0.337749 21.361581 61.523387 2.184928 -0.943091 -14.666009 -9.656719 -11.171269 -3.887227 -0.465660 1.123270 0.000000 0.000000 0.000000 -1.510824 -30.722840 -2.098924 -11.557834 -14.682876 -27.534333 51.828186 -6.688708 -9.850737 -16.996610 -10.545735 25.917641 -11.262344 0.511227 1.048011 0.000000 0.000000 0.000000 -0.710335 -29.328965 -2.108794 12.447297 9.405016 -5.137117 2.002414 2.008145 -2.031495 0.936225 -0.531715 0.938432 0.000000 0.000000 0.000000 3.821923 1.360919 -1.405598 -11.119691 9.945512 6.277987 0.716781 9.046846 -1.094524 0.000000 0.000000 0.000000 2.818686 1.865723 -1.627982 0.715232 -0.128380 -5.552313 -1.897862 -3.192937 -0.204828 -59.109932 2.341019 -46.104412 -179.128391 -73.278443 -178.333357 0.000000 0.000000 0.000000 3.011148 1.377098 -1.815562 3.530832 22.152026 -4.744687 -8.215505 -3.750602 2.396086 -42.186267 17.657900 48.847092 -178.437148 62.026819 177.567488 0.000000 0.000000 0.000000 
3.810486 96.331505 18.364510 0.000000 0.000000 0.000000 -2.267919 -39.637166 -2.592824 -43.053476 0.091551 23.220719 62.239361 2.394819 -1.305448 -13.395373 -8.534202 -11.572253 -4.298702 -0.536289 1.449182 0.000000 0.000000 0.000000 -2.904104 -34.103859 -2.286660 -13.113574 -14.307896 -28.639157 53.875091 -7.691823 -8.973942 -18.943106 -11.662838 25.615236 -8.722577 0.492853 0.856809 0.000000 0.000000 0.000000 -2.237356 -32.822658 -2.261261 12.772682 9.076461 -4.217455 2.113674 1.900234 -1.877871 0.861299 -0.362196 1.061218 0.000000 0.000000 0.000000 3.820296 1.312810 -1.284486 -10.673386 10.663579 5.825157 1.625634 11.673287 -2.122549 0.000000 0.000000 0.000000 2.991967 1.771212 -1.465232 0.808214 -0.035838 -5.363554 -1.523317 -3.191453 -0.255656 -60.090017 3.273833 -46.237949 -179.327942 -73.341656 -178.785734 0.000000 0.000000 0.000000 3.058167 1.261201 -1.674910 3.601390 21.803530 -5.169175 -7.617960 -3.063403 2.503007 -44.631673 17.925546 52.627164 -177.608947 62.667191 176.707307 0.000000 0.000000 0.000000 
3.637735 95.788994 15.574230 0.000000 0.000000 0.000000 -3.365736 -42.243180 -2.773765 -42.846521 0.166721 24.744532 62.495869 2.379264 -1.533030 -11.708483 -7.726348 -12.057727 -4.504155 -0.531363 1.597986 0.000000 0.000000 0.000000 -4.193351 -36.828062 -2.374564 -14.705898 -13.530665 -29.689156 55.467201 -8.096876 -8.191821 -20.020362 -11.932822 26.050514 -7.213914 0.509663 0.763793 0.000000 0.000000 0.000000 -3.453840 -35.652358 -2.296898 12.955212 8.773194 -3.265050 2.210099 1.774851 -1.683159 0.852866 -0.253729 1.089336 0.000000 0.000000 0.000000 3.772041 1.255557 -1.129917 -10.059178 11.220431 5.189763 2.507527 13.660023 -3.035561 0.000000 0.000000 0.000000 3.181969 1.649120 -1.283075 0.918162 0.088707 -5.510704 -1.309612 -3.029909 -0.388347 -60.512150 3.993593 -46.435304 -179.581137 -74.005093 -179.222784 0.000000 0.000000 0.000000 3.181672 1.150947 -1.486687 3.624933 21.146732 -5.516094 -6.917185 -2.431695 2.543316 -47.090872 17.896892 56.490743 -177.278940 62.782751 176.303110 0.000000 0.000000 0.000000 
3.293809 95.425827 12.699524 0.000000 0.000000 0.000000 -4.172190 -43.921402 -2.812441 -42.742590 -0.104505 25.854742 62.070526 2.303366 -1.610911 -9.613473 -7.193564 -12.409209 -4.363186 -0.437203 1.429471 0.000000 0.000000 0.000000 -5.326269 -38.814811 -2.385784 -16.101537 -12.594258 -30.487147 56.136266 -7.947794 -7.625434 -20.265957 -11.435260 27.129945 -6.616287 0.558779 0.739932 0.000000 0.000000 0.000000 -4.311478 -37.751651 -2.202408 12.956243 8.463516 -2.326739 2.281778 1.620623 -1.455294 0.867608 -0.172697 1.058707 0.000000 0.000000 0.000000 3.698840 1.182343 -0.939276 -9.207387 11.651265 4.401607 3.334949 15.139765 -3.893562 0.000000 0.000000 0.000000 3.369768 1.499572 -1.083634 1.045010 0.217867 -5.969016 -1.271136 -2.759908 -0.527606 -60.352597 4.487795 -46.680907 -179.853866 -74.983265 -179.577872 0.000000 0.000000 0.000000 3.368531 1.051915 -1.250702 3.629732 20.313203 -5.753143 -6.269673 -2.073392 2.423201 -49.395276 17.761133 60.113048 -177.407047 63.068894 176.327221 0.000000 0.000000 0.000000 
2.916530 95.335922 9.887611 0.000000 0.000000 0.000000 -4.718829 -44.867827 -2.684947 -42.642561 -0.562007 26.492834 61.006737 2.284913 -1.554501 -7.211540 -6.894234 -12.435704 -3.852946 -0.264172 0.862225 0.000000 0.000000 0.000000 -6.308849 -40.133727 -2.334809 -17.032759 -11.931300 -30.877591 55.824007 -7.645745 -7.216498 -20.180421 -10.605715 27.801916 -6.003183 0.630283 0.793317 0.000000 0.000000 0.000000 -4.798443 -39.257506 -1.945760 12.828640 8.158372 -1.463666 2.334595 1.457329 -1.220273 0.844456 -0.107816 0.968348 0.000000 0.000000 0.000000 3.622543 1.084670 -0.728184 -8.151829 12.004180 3.523640 4.098111 16.225464 -4.744029 0.000000 0.000000 0.000000 3.533753 1.337347 -0.880794 1.178667 0.359307 -6.620945 -1.349733 -2.594013 -0.596432 -59.594206 4.760794 -46.969671 179.847214 -75.845808 -179.864590 0.000000 0.000000 0.000000 3.581105 0.963993 -1.002242 3.627107 19.434745 -5.901525 -5.631920 -1.916946 2.270532 -51.415192 17.850735 63.269968 -177.860257 63.855616 176.648363 0.000000 0.000000 0.000000 
2.501503 95.531120 7.161915 0.000000 0.000000 0.000000 -5.045938 -45.219653 -2.372394 -42.575079 -1.047363 26.620073 59.575471 2.310480 -1.339143 -4.782980 -6.878324 -12.184512 -3.168466 -0.057518 -0.011760 0.000000 0.000000 0.000000 -7.128276 -40.896666 -2.185116 -17.595916 -11.704647 -30.912586 54.874071 -7.539171 -6.826965 -20.156780 -9.811208 27.487060 -4.794875 0.721562 0.924483 0.000000 0.000000 0.000000 -5.036897 -40.313668 -1.539615 12.643373 7.890910 -0.742441 2.360769 1.298590 -1.012843 0.728629 -0.064702 0.840092 0.000000 0.000000 0.000000 3.558822 0.984097 -0.536919 -6.938869 12.300012 2.660815 4.809726 17.016960 -5.591957 0.000000 0.000000 0.000000 3.657104 1.187055 -0.705830 1.310130 0.505817 -7.310988 -1.355784 -2.486402 -0.608530 -58.420479 4.812904 -47.314022 179.610384 -76.312242 179.977602 0.000000 0.000000 0.000000 3.781772 0.895384 -0.784412 3.648836 18.642607 -6.013681 -5.172995 -1.979415 2.136438 -53.092269 18.334347 65.945879 -178.454415 65.054861 177.116176 0.000000 0.000000 0.000000 
2.048884 95.901581 4.630486 0.000000 0.000000 0.000000 -5.339195 -45.225384 -1.910037 -42.551211 -1.290350 26.255082 58.196067 2.266464 -0.951166 -2.668054 -7.245200 -11.781764 -2.523827 0.107334 -0.969750 0.000000 0.000000 0.000000 -7.767639 -41.235706 -1.880669 -17.992506 -11.834851 -30.774322 53.793590 -7.683492 -6.404135 -20.204195 -9.184189 26.356148 -3.652552 0.807326 1.070553 0.000000 0.000000 0.000000 -5.148656 -41.008002 -0.990176 12.474097 7.688038 -0.228227 2.376190 1.166929 -0.863480 0.570887 -0.021609 0.702019 0.000000 0.000000 0.000000 3.528141 0.892663 -0.398211 -5.669938 12.542489 1.891012 5.531124 17.611557 -6.409756 0.000000 0.000000 0.000000 3.740364 1.067278 -0.591663 1.437105 0.658697 -7.911632 -1.310027 -2.464684 -0.650271 -57.152281 4.693181 -47.711627 179.428168 -76.317269 179.886733 0.000000 0.000000 0.000000 3.930005 0.847642 -0.630459 3.693532 18.001682 -6.157851 -4.841738 -2.088867 2.054286 -54.422917 19.189374 68.275281 -178.920166 66.295660 177.491481 0.000000 0.000000 0.000000 
1.609767 96.386009 2.371017 0.000000 0.000000 0.000000 -5.633984 -45.136824 -1.319983 -42.562935 -1.154755 25.421363 57.102991 1.929277 -0.387979 -1.219002 -8.160094 -11.612405 -2.283004 0.183956 -1.705990 0.000000 0.000000 0.000000 -8.207042 -41.379557 -1.387800 -18.474875 -12.099649 -30.618587 52.991907 -7.964914 -6.013508 -20.017051 -8.734970 25.072757 -3.331230 0.862351 1.156073 0.000000 0.000000 0.000000 -5.214084 -41.592591 -0.323690 12.372264 7.570655 0.059148 2.391213 1.075059 -0.775305 0.397466 0.074086 0.571309 0.000000 0.000000 0.000000 3.498305 0.823221 -0.328276 -4.461559 12.738275 1.273611 6.244922 18.077188 -7.128074 0.000000 0.000000 0.000000 3.777103 0.979298 -0.545107 1.543090 0.826742 -8.322693 -1.175719 -2.449319 -0.732835 -55.998105 4.511251 -48.085450 179.302165 -76.055673 179.840944 0.000000 0.000000 0.000000 4.014861 0.821159 -0.550380 3.748317 17.536547 -6.355746 -4.536780 -2.147416 2.011857 -55.387486 20.199583 70.352185 -179.192977 67.256982 177.726139 0.000000 0.000000 0.000000 
1.168525 96.873970 0.406536 0.000000 0.000000 0.000000 -5.948557 -45.056641 -0.656979 -42.617382 -0.554059 24.284174 56.454690 0.980974 0.380093 -0.468880 -9.758780 -12.340691 -2.788331 0.182268 -1.910163 0.000000 0.000000 0.000000 -8.461938 -41.502569 -0.714800 -19.154349 -12.165784 -30.474836 52.467983 -8.180786 -5.742868 -19.651569 -8.406367 24.136750 -3.698232 0.878910 1.158305 0.000000 0.000000 0.000000 -5.336563 -42.126015 0.327927 12.346563 7.533294 0.136500 2.408387 1.014887 -0.732637 0.316057 0.068624 0.541456 0.000000 0.000000 0.000000 3.449006 0.775950 -0.313529 -3.385849 12.905493 0.843002 6.981244 18.435565 -7.689238 0.000000 0.000000 0.000000 3.780511 0.918100 -0.555003 1.618073 0.995024 -8.508819 -1.015805 -2.340132 -0.847904 -55.196685 4.398936 -48.378466 179.253916 -75.777117 179.849345 0.000000 0.000000 0.000000 4.044005 0.811042 -0.531852 3.797107 17.265714 -6.620078 -4.283561 -2.204307 2.032327 -56.020344 21.114382 72.163578 -179.231581 67.799641 177.762708 0.000000 0.000000 0.000000 
